<svg xmlns="http://www.w3.org/2000/svg" xmlns:xlink="http://www.w3.org/1999/xlink" width="41" height="38" viewBox="0 0 41 38">
  <defs>
    <filter id="Rectangle_125" x="0" y="7" width="27" height="28" filterUnits="userSpaceOnUse">
      <feOffset dy="3" input="SourceAlpha"/>
      <feGaussianBlur stdDeviation="3" result="blur"/>
      <feFlood flood-opacity="0.161"/>
      <feComposite operator="in" in2="blur"/>
      <feComposite in="SourceGraphic"/>
    </filter>
    <filter id="Rectangle_131" x="2" y="0" width="32" height="31" filterUnits="userSpaceOnUse">
      <feOffset dy="3" input="SourceAlpha"/>
      <feGaussianBlur stdDeviation="3" result="blur-2"/>
      <feFlood flood-opacity="0.161"/>
      <feComposite operator="in" in2="blur-2"/>
      <feComposite in="SourceGraphic"/>
    </filter>
    <filter id="Rectangle_132" x="6" y="3" width="35" height="35" filterUnits="userSpaceOnUse">
      <feOffset dy="3" input="SourceAlpha"/>
      <feGaussianBlur stdDeviation="3" result="blur-3"/>
      <feFlood flood-opacity="0.161"/>
      <feComposite operator="in" in2="blur-3"/>
      <feComposite in="SourceGraphic"/>
    </filter>
  </defs>
  <g id="Dashboard_logo" data-name="Dashboard logo" transform="translate(-17 -183)">
    <g transform="matrix(1, 0, 0, 1, 17, 183)" filter="url(#Rectangle_125)">
      <g id="Rectangle_125-2" data-name="Rectangle 125" transform="translate(9 13)" fill="#fff" stroke="#48b8b0" stroke-width="1">
        <rect width="9" height="10" rx="3" stroke="none"/>
        <rect x="0.5" y="0.5" width="8" height="9" rx="2.5" fill="none"/>
      </g>
    </g>
    <g transform="matrix(1, 0, 0, 1, 17, 183)" filter="url(#Rectangle_131)">
      <g id="Rectangle_131-2" data-name="Rectangle 131" transform="translate(11 6)" fill="#fff" stroke="#48b8b0" stroke-width="1">
        <rect width="14" height="13" rx="4" stroke="none"/>
        <rect x="0.5" y="0.5" width="13" height="12" rx="3.5" fill="none"/>
      </g>
    </g>
    <g transform="matrix(1, 0, 0, 1, 17, 183)" filter="url(#Rectangle_132)">
      <g id="Rectangle_132-2" data-name="Rectangle 132" transform="translate(15 9)" fill="#fff" stroke="#48b8b0" stroke-width="1">
        <rect width="17" height="17" rx="5" stroke="none"/>
        <rect x="0.5" y="0.5" width="16" height="16" rx="4.5" fill="none"/>
      </g>
    </g>
  </g>
</svg>
