<svg xmlns="http://www.w3.org/2000/svg" width="26.286" height="25.508" viewBox="0 0 26.286 25.508">
  <g id="Education_logo" data-name="Education logo" transform="translate(-24.525 -373.956)">
    <g id="Group_5" data-name="Group 5" transform="translate(24.525 373.956)">
      <g id="Group_16" data-name="Group 16">
        <g id="Rectangle_101" data-name="Rectangle 101" transform="translate(0 3.172)" fill="#fff">
          <path d="M3.714.016,13.5.058a4.839,4.839,0,0,1,1.5.252,5.37,5.37,0,0,1,1.356.677,4.847,4.847,0,0,1,1.07,1,3.638,3.638,0,0,1,.638,1.225l4.508,15.759a2.679,2.679,0,0,1,.069,1.262,2.264,2.264,0,0,1-.5,1.037,2.612,2.612,0,0,1-.984.7,3.612,3.612,0,0,1-1.378.266l-9.943.069a4.847,4.847,0,0,1-1.538-.247A5.37,5.37,0,0,1,6.9,21.368a4.874,4.874,0,0,1-1.092-1.035,3.709,3.709,0,0,1-.641-1.27L.858,3.165A2.542,2.542,0,0,1,.816,1.932a2.207,2.207,0,0,1,.525-1,2.644,2.644,0,0,1,1-.672A3.708,3.708,0,0,1,3.714.016Z" stroke="none"/>
          <path d="M 19.54067420959473 21.42695236206055 C 19.92606735229492 21.42445182800293 20.27396965026855 21.35367012023926 20.57300186157227 21.22793960571289 C 20.87186813354492 21.10227203369141 21.12188148498535 20.92173385620117 21.31173706054688 20.69963264465332 C 21.50147247314453 20.4776725769043 21.63111877441406 20.21421813964844 21.68942451477051 19.92254066467285 C 21.74768829345703 19.63105201721191 21.73470687866211 19.31136894226074 21.63924217224121 18.97669982910156 L 17.14179801940918 3.209882020950317 C 17.04897308349609 2.884473562240601 16.88340759277344 2.574170112609863 16.66361999511719 2.291699171066284 C 16.44390487670898 2.00932788848877 16.16995048522949 1.754705309867859 15.8602180480957 1.540557742118835 C 15.5505256652832 1.326436400413513 15.20498466491699 1.152729034423828 14.84201812744141 1.032181143760681 C 14.47900485992432 0.9116182923316956 14.09846687316895 0.8441974520683289 13.71880531311035 0.842706561088562 L 3.930158376693726 0.8042692542076111 C 3.546590566635132 0.802763044834137 3.198922157287598 0.8676998019218445 2.898679971694946 0.9863987565040588 C 2.598273754119873 1.105162382125854 2.345308542251587 1.277761578559875 2.151380777359009 1.491501450538635 C 1.95733118057251 1.705376267433167 1.822384238243103 1.960453629493713 1.758189082145691 2.24399733543396 C 1.693952679634094 2.527723073959351 1.700560688972473 2.839943885803223 1.789685010910034 3.167864561080933 L 6.108445167541504 19.05816268920898 C 6.200125694274902 19.39548873901367 6.366892337799072 19.71683120727539 6.589888572692871 20.00897979736328 C 6.812964916229248 20.30123138427734 7.092260360717773 20.5642032623291 7.408852577209473 20.78467559814453 C 7.725485801696777 21.00517845153809 8.079347610473633 21.18311500549316 8.45147705078125 21.30530166625977 C 8.82355785369873 21.42746925354004 9.213805198669434 21.49386596679688 9.603239059448242 21.49134254455566 L 19.54067420959473 21.42695236206055 M 19.77094268798828 22.24110794067383 L 9.827644348144531 22.30964469909668 C 9.307229042053223 22.31323432922363 8.786126136779785 22.22495460510254 8.289504051208496 22.06221771240234 C 7.792799472808838 21.89945793151855 7.320757389068604 21.66227149963379 6.898518085479736 21.36814880371094 C 6.476349353790283 21.07407188415527 6.104104995727539 20.72317886352539 5.806851387023926 20.33299255371094 C 5.509741306304932 19.94298934936523 5.287640571594238 19.51385498046875 5.16550350189209 19.06311225891113 L 0.8576974868774414 3.165313720703125 C 0.7389898896217346 2.727227926254272 0.7302796840667725 2.310520887374878 0.8160622715950012 1.932121276855469 C 0.9017714858055115 1.554044961929321 1.081809043884277 1.214224100112915 1.340711116790771 0.9294834136962891 C 1.599395632743835 0.644981861114502 1.936829209327698 0.4154498279094696 2.337640285491943 0.2576387524604797 C 2.738159894943237 0.09994227439165115 3.202029943466187 0.0138368122279644 3.714002370834351 0.0160495899617672 L 13.4969596862793 0.0583321750164032 C 14.00365829467773 0.06052215397357941 14.51101112365723 0.1503047347068787 14.99471855163574 0.3107714653015137 C 15.47834873199463 0.471211850643158 15.93851280212402 0.7023674845695496 16.35088157653809 0.9874052405357361 C 16.7633171081543 1.272489428520203 17.12808036804199 1.611564636230469 17.42077445983887 1.987832188606262 C 17.7136058807373 2.364277839660645 17.93439292907715 2.778064012527466 18.05862998962402 3.212391138076782 L 22.56664085388184 18.97183799743652 C 22.6944408416748 19.41860580444336 22.71245765686035 19.84513664245605 22.63549041748047 20.23395156860352 C 22.55846214294434 20.62310028076172 22.38627815246582 20.97447967529297 22.13378524780273 21.2705078125 C 21.88108062744141 21.56678009033203 21.54793930053711 21.80758476257324 21.14929962158203 21.97525405883789 C 20.75036811828613 22.14304542541504 20.2858943939209 22.2375602722168 19.77094268798828 22.24110794067383 Z" stroke="none" fill="#48b8b0"/>
        </g>
        <g id="Rectangle_102" data-name="Rectangle 102" transform="translate(2.795)" fill="#fff">
          <path d="M3.7.022,13.459.08a4.844,4.844,0,0,1,1.494.254,5.387,5.387,0,0,1,1.354.676,4.862,4.862,0,0,1,1.07,1,3.638,3.638,0,0,1,.64,1.22l4.54,15.694a2.664,2.664,0,0,1,.072,1.256,2.24,2.24,0,0,1-.5,1.031,2.588,2.588,0,0,1-.98.7,3.6,3.6,0,0,1-1.374.262l-9.915.052a4.852,4.852,0,0,1-1.534-.249A5.388,5.388,0,0,1,6.94,21.28a4.889,4.889,0,0,1-1.092-1.032A3.709,3.709,0,0,1,5.2,18.983L.864,3.152A2.527,2.527,0,0,1,.819,1.924a2.183,2.183,0,0,1,.52-1A2.62,2.62,0,0,1,2.332.26,3.7,3.7,0,0,1,3.7.022Z" stroke="none"/>
          <path d="M 19.54622268676758 21.35885047912598 C 19.93052673339844 21.35698890686035 20.27725028991699 21.28709983825684 20.57508659362793 21.16243743896484 C 20.87275695800781 21.037841796875 21.12156295776367 20.85854721069336 21.31026077270508 20.63779258728027 C 21.49884223937988 20.41717529296875 21.62738037109375 20.15515518188477 21.6847038269043 19.86493492126465 C 21.74198913574219 19.57489967346191 21.72814559936523 19.25668525695801 21.63200950622559 18.92342376708984 L 17.10284423828125 3.222522735595703 C 17.00936508178711 2.898468494415283 16.84338569641113 2.589332580566406 16.62341690063477 2.307813405990601 C 16.40352058410645 2.026393413543701 16.12961578369141 1.772507071495056 15.82014465332031 1.558851480484009 C 15.51071262359619 1.345222115516663 15.16564655303955 1.171762585639954 14.8033561706543 1.051189541816711 C 14.44101428985596 0.9306013584136963 14.0613489151001 0.8628820180892944 13.6827449798584 0.8607897758483887 L 3.921398162841797 0.8068474531173706 C 3.538902759552002 0.8047336935997009 3.192394495010376 0.8688133358955383 2.89333176612854 0.9864825010299683 C 2.594105958938599 1.104215979576111 2.34234094619751 1.275611639022827 2.149564266204834 1.488052129745483 C 1.956666231155396 1.700626730918884 1.822821855545044 1.954307794570923 1.759611010551453 2.23643684387207 C 1.696360111236572 2.518746376037598 1.703834772109985 2.829532623291016 1.793638229370117 3.156078338623047 L 6.145220279693604 18.97942543029785 C 6.237595558166504 19.31532287597656 6.404799938201904 19.63543510437012 6.627990245819092 19.92657661437988 C 6.851262092590332 20.21782302856445 7.130511283874512 20.48001670837402 7.446831703186035 20.69997215270996 C 7.763190746307373 20.91995048522949 8.116554260253906 21.09762954711914 8.487975120544434 21.21984481811523 C 8.859349250793457 21.34204292297363 9.248679161071777 21.40875816345215 9.637003898620605 21.40687561035156 L 19.54622268676758 21.35885047912598 M 19.77813148498535 22.16958236694336 L 9.863085746765137 22.22171783447266 C 9.34415340423584 22.22444725036621 8.824275970458984 22.13573837280273 8.328600883483887 21.97296142578125 C 7.832842350006104 21.81015968322754 7.361465930938721 21.57331848144531 6.939590930938721 21.27988815307617 C 6.517785549163818 20.98650550842285 6.145603179931641 20.63665199279785 5.848086833953857 20.24780654907227 C 5.55071496963501 19.85915184020996 5.328028202056885 19.43166160583496 5.204960823059082 18.98282623291016 L 0.8642661571502686 3.152044773101807 C 0.7446498274803162 2.715796947479248 0.7347820401191711 2.301004886627197 0.81924968957901 1.924493670463562 C 0.9036453366279602 1.548303961753845 1.082212567329407 1.210343360900879 1.339579343795776 0.9273340702056885 C 1.596729874610901 0.6445622444152832 1.932564616203308 0.416631817817688 2.331802368164062 0.2601920068264008 C 2.730750322341919 0.1038657277822495 3.193074226379395 0.01890098676085472 3.70361590385437 0.02192348428070545 L 13.45930767059326 0.07967884838581085 C 13.96459770202637 0.08267025649547577 14.47078609466553 0.1728513091802597 14.9535961151123 0.333352655172348 C 15.43632984161377 0.4938276708126068 15.89586067199707 0.7246543169021606 16.30788040161133 1.009037733078003 C 16.71996688842773 1.29346764087677 17.08466720581055 1.63156270980835 17.37760543823242 2.006563186645508 C 17.67067909240723 2.381740093231201 17.89201164245605 2.793969869613647 18.01712799072266 3.22649097442627 L 22.55679512023926 18.92008209228516 C 22.68548774719238 19.36497116088867 22.70464706420898 19.78954315185547 22.62898826599121 20.17641830444336 C 22.55326652526855 20.56363105773926 22.38255310058594 20.91309547424316 22.13160133361816 21.20732879638672 C 21.88043594360352 21.50181198120117 21.54891014099121 21.7409553527832 21.1518611907959 21.90719413757324 C 20.75452041625977 22.07355690002441 20.29162216186523 22.1668815612793 19.77813148498535 22.16958236694336 Z" stroke="none" fill="#48b8b0"/>
        </g>
      </g>
    </g>
    <g id="Rectangle_138" data-name="Rectangle 138" transform="translate(32.269 382.501)" fill="none">
      <path d="M1.5,0l9.662.014a1.949,1.949,0,0,1,.607.1,2.173,2.173,0,0,1,.551.275A1.971,1.971,0,0,1,12.758.8a1.486,1.486,0,0,1,.26.5,1.045,1.045,0,0,1,.026.5.884.884,0,0,1-.2.408,1.038,1.038,0,0,1-.394.275,1.458,1.458,0,0,1-.551.1l-9.68,0a1.966,1.966,0,0,1-.614-.1A2.173,2.173,0,0,1,1.048,2.2,1.957,1.957,0,0,1,.612,1.79a1.47,1.47,0,0,1-.257-.5,1.042,1.042,0,0,1-.02-.5A.9.9,0,0,1,.544.378,1.064,1.064,0,0,1,.946.1,1.489,1.489,0,0,1,1.5,0Z" stroke="none"/>
      <path d="M 11.66920566558838 1.783612251281738 C 11.74702739715576 1.783656001091003 11.81731605529785 1.770055890083313 11.87777805328369 1.745441198348999 C 11.938232421875 1.720829010009766 11.98885917663574 1.685205817222595 12.02736282348633 1.641199588775635 C 12.06586074829102 1.597198963165283 12.09223747253418 1.544818043708801 12.10419750213623 1.48668372631073 C 12.11615562438965 1.428556799888611 12.11370182037354 1.364677786827087 12.09454345703125 1.29767107963562 C 12.07538414001465 1.230671882629395 12.04131126403809 1.166789531707764 11.99612140655518 1.108649373054504 C 11.95093154907227 1.0505131483078 11.89462184906006 0.9981154799461365 11.83099174499512 0.9540818929672241 C 11.76736354827881 0.9100494980812073 11.69640922546387 0.874378502368927 11.62192440032959 0.8496953248977661 C 11.547438621521 0.8250115513801575 11.46941661834717 0.8113147020339966 11.39165210723877 0.81123286485672 L 1.724117159843445 0.8010586500167847 C 1.645585060119629 0.8009759783744812 1.574497222900391 0.8145846128463745 1.513200879096985 0.8392522931098938 C 1.451897859573364 0.8639227747917175 1.400387048721313 0.8996554017066956 1.361019015312195 0.9438174366950989 C 1.321645855903625 0.9879853129386902 1.294417858123779 1.040585041046143 1.28168773651123 1.098981976509094 C 1.268956422805786 1.157386898994446 1.270726442337036 1.221589922904968 1.28935170173645 1.288954734802246 C 1.307979226112366 1.356327533721924 1.341728687286377 1.420579195022583 1.386789441108704 1.479063391685486 C 1.431853652000427 1.537551999092102 1.488229155540466 1.590269684791565 1.552102565765381 1.634570598602295 C 1.615977883338928 1.67887270450592 1.687348484992981 1.714755535125732 1.762400150299072 1.739573836326599 C 1.837450265884399 1.764391779899597 1.916176915168762 1.778144240379333 1.994765520095825 1.778188228607178 L 11.66920566558838 1.783612251281738 M 11.89683151245117 2.581068515777588 L 2.216728448867798 2.579546451568604 C 2.008971214294434 2.579513549804688 1.801007866859436 2.543334722518921 1.602847695350647 2.477933406829834 C 1.404674053192139 2.41252875328064 1.216331958770752 2.317906141281128 1.047825574874878 2.201003789901733 C 0.8793303370475769 2.08410906791687 0.7306903600692749 1.944952964782715 0.6118980050086975 1.790477752685547 C 0.4931285083293915 1.636032462120056 0.4042094647884369 1.46629273891449 0.3551154136657715 1.288201212882996 C 0.306036651134491 1.110165357589722 0.3014082610607147 0.9406497478485107 0.335045337677002 0.7865564227104187 C 0.3686707317829132 0.6325164437294006 0.4405347108840942 0.4938905835151672 0.5444589257240295 0.3775639235973358 C 0.6483478546142578 0.2612769305706024 0.7842779159545898 0.1672709882259369 0.9460858106613159 0.1024191603064537 C 1.107846021652222 0.03758649528026581 1.295479893684387 0.001886482932604849 1.502843499183655 0.002188062993809581 L 11.16473007202148 0.01623986102640629 C 11.37003898620605 0.01653845235705376 11.57582092285156 0.05262115597724915 11.77216815948486 0.1176137551665306 C 11.96850109100342 0.1826020330190659 12.15542697906494 0.2765052318572998 12.32303237915039 0.3924617171287537 C 12.49065017700195 0.5084259510040283 12.63896465301514 0.6464613080024719 12.75805282592773 0.7997120022773743 C 12.87716579437256 0.9529920816421509 12.96705627441406 1.121512055397034 13.01778125762939 1.298415660858154 C 13.06852245330811 1.475374221801758 13.07527542114258 1.643980979919434 13.04401779174805 1.797366142272949 C 13.01275253295898 1.950804352760315 12.94345092773438 2.089012145996094 12.84210109710693 2.205104112625122 C 12.74071407318115 2.321234941482544 12.60725879669189 2.415230989456177 12.4477367401123 2.480192899703979 C 12.28816795349121 2.545174837112427 12.10252666473389 2.581100940704346 11.89683151245117 2.581068515777588 Z" stroke="none" fill="#48b8b0"/>
    </g>
    <g id="Rectangle_139" data-name="Rectangle 139" transform="translate(33.269 385.501)" fill="none">
      <path d="M1.5,0l9.662.014a1.949,1.949,0,0,1,.607.1,2.173,2.173,0,0,1,.551.275A1.971,1.971,0,0,1,12.758.8a1.486,1.486,0,0,1,.26.5,1.045,1.045,0,0,1,.026.5.884.884,0,0,1-.2.408,1.038,1.038,0,0,1-.394.275,1.458,1.458,0,0,1-.551.1l-9.68,0a1.966,1.966,0,0,1-.614-.1A2.173,2.173,0,0,1,1.048,2.2,1.957,1.957,0,0,1,.612,1.79a1.47,1.47,0,0,1-.257-.5,1.042,1.042,0,0,1-.02-.5A.9.9,0,0,1,.544.378,1.064,1.064,0,0,1,.946.1,1.489,1.489,0,0,1,1.5,0Z" stroke="none"/>
      <path d="M 11.66920566558838 1.783612012863159 C 11.74702739715576 1.783655762672424 11.81731605529785 1.770055651664734 11.87777805328369 1.74544095993042 C 11.938232421875 1.720828771591187 11.98885917663574 1.685205578804016 12.02736282348633 1.641199350357056 C 12.06586074829102 1.597198724746704 12.09223747253418 1.544817805290222 12.10419750213623 1.486683487892151 C 12.11615562438965 1.428556561470032 12.11370182037354 1.364677667617798 12.09454345703125 1.297670960426331 C 12.07538414001465 1.230671763420105 12.04131126403809 1.166789412498474 11.99612140655518 1.108649253845215 C 11.95093154907227 1.050513029098511 11.89462184906006 0.9981153607368469 11.83099174499512 0.9540817737579346 C 11.76736354827881 0.9100493788719177 11.69640922546387 0.8743783831596375 11.62192440032959 0.8496952056884766 C 11.547438621521 0.8250114321708679 11.46941661834717 0.811314582824707 11.39165210723877 0.8112327456474304 L 1.724117159843445 0.8010585308074951 C 1.645585060119629 0.8009758591651917 1.574497222900391 0.814584493637085 1.513200879096985 0.8392521739006042 C 1.451897859573364 0.863922655582428 1.400387048721313 0.899655282497406 1.361018896102905 0.9438173174858093 C 1.321645736694336 0.9879851937294006 1.294417858123779 1.040584921836853 1.28168773651123 1.098981857299805 C 1.268956422805786 1.157386779785156 1.270726442337036 1.221589803695679 1.28935170173645 1.288954615592957 C 1.307979106903076 1.356327414512634 1.341728687286377 1.420578956604004 1.386789441108704 1.479063153266907 C 1.431853652000427 1.537551760673523 1.488229036331177 1.590269446372986 1.552102565765381 1.634570360183716 C 1.615977883338928 1.678872466087341 1.687348484992981 1.714755296707153 1.762400150299072 1.73957359790802 C 1.83745014667511 1.764391541481018 1.916176915168762 1.778144001960754 1.994765520095825 1.778187990188599 L 11.66920566558838 1.783612012863159 M 11.89683151245117 2.58106803894043 L 2.216728448867798 2.579545974731445 C 2.008971214294434 2.579513072967529 1.801007866859436 2.543334245681763 1.602847576141357 2.477933168411255 C 1.404673933982849 2.412528276443481 1.216331839561462 2.31790566444397 1.047825574874878 2.201003551483154 C 0.8793302178382874 2.084108829498291 0.7306903004646301 1.944952726364136 0.6118979454040527 1.790477514266968 C 0.4931284487247467 1.636032223701477 0.4042094647884369 1.466292500495911 0.3551153838634491 1.288201093673706 C 0.306036651134491 1.110165238380432 0.3014082312583923 0.9406496286392212 0.335045337677002 0.7865563631057739 C 0.3686707317829132 0.6325163245201111 0.4405347108840942 0.4938904941082001 0.5444589257240295 0.377563863992691 C 0.6483478546142578 0.26127690076828 0.7842779159545898 0.1672709584236145 0.9460858106613159 0.1024191454052925 C 1.107846021652222 0.03758649155497551 1.295479893684387 0.001886482932604849 1.502843499183655 0.002188062993809581 L 11.16473007202148 0.01623986102640629 C 11.37003898620605 0.01653845235705376 11.57582092285156 0.05262114852666855 11.77216815948486 0.1176137402653694 C 11.96850109100342 0.1826020032167435 12.15542697906494 0.2765052020549774 12.32303237915039 0.3924616575241089 C 12.49065017700195 0.5084258317947388 12.63896465301514 0.6464611887931824 12.75805282592773 0.7997119426727295 C 12.87716484069824 0.9529919624328613 12.96705627441406 1.121511936187744 13.01778125762939 1.298415541648865 C 13.06852245330811 1.475373983383179 13.07527542114258 1.643980741500854 13.04401779174805 1.79736590385437 C 13.01275253295898 1.950804114341736 12.94345092773438 2.089011907577515 12.84210109710693 2.205103874206543 C 12.74071407318115 2.321234464645386 12.60725879669189 2.415230512619019 12.44773578643799 2.4801926612854 C 12.28816795349121 2.545174360275269 12.10252666473389 2.581100463867188 11.89683151245117 2.58106803894043 Z" stroke="none" fill="#48b8b0"/>
    </g>
    <g id="Rectangle_140" data-name="Rectangle 140" transform="translate(34.269 388.501)" fill="none">
      <path d="M1.5,0l9.662.014a1.949,1.949,0,0,1,.607.1,2.173,2.173,0,0,1,.551.275A1.971,1.971,0,0,1,12.758.8a1.486,1.486,0,0,1,.26.5,1.045,1.045,0,0,1,.026.5.884.884,0,0,1-.2.408,1.038,1.038,0,0,1-.394.275,1.458,1.458,0,0,1-.551.1l-9.68,0a1.966,1.966,0,0,1-.614-.1A2.173,2.173,0,0,1,1.048,2.2,1.957,1.957,0,0,1,.612,1.79a1.47,1.47,0,0,1-.257-.5,1.042,1.042,0,0,1-.02-.5A.9.9,0,0,1,.544.378,1.064,1.064,0,0,1,.946.1,1.489,1.489,0,0,1,1.5,0Z" stroke="none"/>
      <path d="M 11.66920566558838 1.783612132072449 C 11.74702739715576 1.783655881881714 11.81731605529785 1.770055770874023 11.87777805328369 1.74544095993042 C 11.938232421875 1.720828890800476 11.98885917663574 1.685205578804016 12.02736282348633 1.641199350357056 C 12.06586074829102 1.597198724746704 12.09223747253418 1.544817924499512 12.10419750213623 1.486683487892151 C 12.11615562438965 1.428556680679321 12.11370182037354 1.364677548408508 12.09454345703125 1.297670841217041 C 12.07538414001465 1.230671644210815 12.04131126403809 1.166789412498474 11.99612140655518 1.108649134635925 C 11.95093154907227 1.050513029098511 11.89462184906006 0.9981152415275574 11.83099174499512 0.9540817141532898 C 11.76736354827881 0.9100493192672729 11.69640922546387 0.8743783235549927 11.62192440032959 0.8496951460838318 C 11.547438621521 0.8250113725662231 11.46941661834717 0.8113145232200623 11.39165210723877 0.8112326860427856 L 1.724117159843445 0.8010585904121399 C 1.645585060119629 0.8009759783744812 1.574497222900391 0.8145846128463745 1.513200879096985 0.8392522931098938 C 1.451897859573364 0.8639227151870728 1.400387048721313 0.8996553421020508 1.361019015312195 0.9438173770904541 C 1.321645855903625 0.9879853129386902 1.294417858123779 1.040585041046143 1.28168773651123 1.098981976509094 C 1.268956422805786 1.157386898994446 1.270726442337036 1.221589922904968 1.28935170173645 1.288954734802246 C 1.307979226112366 1.356327533721924 1.341728687286377 1.420579195022583 1.386789441108704 1.479063391685486 C 1.431853652000427 1.537551999092102 1.488229155540466 1.590269684791565 1.552102565765381 1.634570598602295 C 1.615977883338928 1.67887270450592 1.687348484992981 1.714755535125732 1.762400150299072 1.739573836326599 C 1.837450265884399 1.764391779899597 1.916176915168762 1.778144121170044 1.994765520095825 1.778188228607178 L 11.66920566558838 1.783612132072449 M 11.89683151245117 2.581068277359009 L 2.216728448867798 2.579546451568604 C 2.008971214294434 2.579513549804688 1.801007866859436 2.543334722518921 1.602847695350647 2.477933406829834 C 1.404674053192139 2.41252875328064 1.216331958770752 2.317906141281128 1.047825574874878 2.201003789901733 C 0.8793303370475769 2.08410906791687 0.7306903600692749 1.944952964782715 0.6118980050086975 1.790477752685547 C 0.4931285083293915 1.636032462120056 0.4042094647884369 1.46629273891449 0.3551154136657715 1.288201212882996 C 0.306036651134491 1.110165357589722 0.3014082610607147 0.9406497478485107 0.335045337677002 0.7865564227104187 C 0.3686707317829132 0.6325164437294006 0.4405347108840942 0.4938905835151672 0.5444589257240295 0.3775639235973358 C 0.6483478546142578 0.26127690076828 0.7842779159545898 0.1672709733247757 0.9460858106613159 0.1024191454052925 C 1.107846021652222 0.03758647665381432 1.295479893684387 0.001886462094262242 1.502843499183655 0.002188039012253284 L 11.16473007202148 0.01623968221247196 C 11.37003898620605 0.01653827168047428 11.57582092285156 0.05262096971273422 11.77216815948486 0.1176135689020157 C 11.96850109100342 0.1826018393039703 12.15542697906494 0.2765050232410431 12.32303237915039 0.3924615383148193 C 12.49065017700195 0.5084257125854492 12.63896465301514 0.6464611291885376 12.75805282592773 0.7997117638587952 C 12.87716579437256 0.9529919028282166 12.96705627441406 1.121511816978455 13.01778125762939 1.298415422439575 C 13.06852245330811 1.475373983383179 13.07527542114258 1.643980741500854 13.04401779174805 1.79736602306366 C 13.01275253295898 1.950804114341736 12.94345092773438 2.089011907577515 12.84210109710693 2.205103874206543 C 12.74071407318115 2.321234941482544 12.60725879669189 2.415230751037598 12.4477367401123 2.480192899703979 C 12.28816795349121 2.545174598693848 12.10252666473389 2.581100702285767 11.89683151245117 2.581068277359009 Z" stroke="none" fill="#48b8b0"/>
    </g>
    <g id="Rectangle_141" data-name="Rectangle 141" transform="translate(35.269 391.501)" fill="none">
      <path d="M1.5,0l9.662.014a1.949,1.949,0,0,1,.607.1,2.173,2.173,0,0,1,.551.275A1.971,1.971,0,0,1,12.758.8a1.486,1.486,0,0,1,.26.5,1.045,1.045,0,0,1,.026.5.884.884,0,0,1-.2.408,1.038,1.038,0,0,1-.394.275,1.458,1.458,0,0,1-.551.1l-9.68,0a1.966,1.966,0,0,1-.614-.1A2.173,2.173,0,0,1,1.048,2.2,1.957,1.957,0,0,1,.612,1.79a1.47,1.47,0,0,1-.257-.5,1.042,1.042,0,0,1-.02-.5A.9.9,0,0,1,.544.378,1.064,1.064,0,0,1,.946.1,1.489,1.489,0,0,1,1.5,0Z" stroke="none"/>
      <path d="M 11.6692066192627 1.783612132072449 C 11.74702739715576 1.783655881881714 11.81731700897217 1.770055770874023 11.87777900695801 1.745441079139709 C 11.93823337554932 1.720828890800476 11.98886013031006 1.685205698013306 12.02736377716064 1.641199469566345 C 12.06586074829102 1.597198843955994 12.0922384262085 1.544817924499512 12.10419750213623 1.48668360710144 C 12.11615657806396 1.428556680679321 12.11370182037354 1.364677786827087 12.09454345703125 1.29767107963562 C 12.07538414001465 1.230671882629395 12.0413122177124 1.166789412498474 11.99612140655518 1.108649253845215 C 11.95093250274658 1.050513029098511 11.89462184906006 0.9981153607368469 11.83099269866943 0.9540818333625793 C 11.76736450195312 0.9100494384765625 11.69641017913818 0.8743784427642822 11.62192535400391 0.8496952652931213 C 11.54743957519531 0.8250114917755127 11.46941661834717 0.8113146424293518 11.39165306091309 0.8112328052520752 L 1.724117279052734 0.8010585904121399 C 1.645585179328918 0.8009759187698364 1.574497222900391 0.8145845532417297 1.513200879096985 0.839252233505249 C 1.451897859573364 0.8639227151870728 1.400387048721313 0.8996553421020508 1.361018896102905 0.9438173770904541 C 1.321645736694336 0.9879852533340454 1.294417858123779 1.040584921836853 1.28168785572052 1.098981857299805 C 1.268956422805786 1.157386779785156 1.270726442337036 1.221589922904968 1.28935182094574 1.288954734802246 C 1.307979226112366 1.356327533721924 1.341728687286377 1.420579075813293 1.386789441108704 1.479063272476196 C 1.431853652000427 1.537551879882812 1.488229036331177 1.590269565582275 1.552102565765381 1.634570479393005 C 1.615977883338928 1.678872585296631 1.687348604202271 1.714755415916443 1.762400150299072 1.73957371711731 C 1.83745014667511 1.764391660690308 1.916177034378052 1.778144121170044 1.994765639305115 1.778188109397888 L 11.6692066192627 1.783612132072449 M 11.89683246612549 2.581068277359009 L 2.216728448867798 2.579546213150024 C 2.008971214294434 2.579513311386108 1.801007866859436 2.543334484100342 1.602847695350647 2.477933406829834 C 1.404674053192139 2.412528514862061 1.216331958770752 2.317905902862549 1.047825574874878 2.201003551483154 C 0.8793302774429321 2.08410906791687 0.7306903600692749 1.944952845573425 0.6118979454040527 1.790477633476257 C 0.4931284785270691 1.636032342910767 0.4042094647884369 1.4662926197052 0.3551153838634491 1.288201212882996 C 0.306036651134491 1.110165357589722 0.3014082312583923 0.940649688243866 0.335045337677002 0.7865564227104187 C 0.3686707317829132 0.6325163841247559 0.4405347108840942 0.4938905537128448 0.5444589257240295 0.3775638937950134 C 0.6483479142189026 0.2612769305706024 0.7842779755592346 0.1672709733247757 0.9460858702659607 0.1024191528558731 C 1.107846021652222 0.03758649155497551 1.295479893684387 0.001886482932604849 1.502843618392944 0.002188062993809581 L 11.1647310256958 0.01623986102640629 C 11.37003993988037 0.01653845235705376 11.57582187652588 0.05262115225195885 11.77216911315918 0.11761374771595 C 11.96850109100342 0.1826020181179047 12.15542697906494 0.2765052318572998 12.32303333282471 0.3924617171287537 C 12.49065113067627 0.5084258913993835 12.63896560668945 0.6464612483978271 12.75805377960205 0.7997120022773743 C 12.87716484069824 0.9529920220375061 12.96705722808838 1.121512055397034 13.01778221130371 1.298415660858154 C 13.06852340698242 1.475374102592468 13.07527542114258 1.643980860710144 13.04401874542236 1.79736602306366 C 13.0127534866333 1.950804114341736 12.94345188140869 2.089012145996094 12.84210109710693 2.205103874206543 C 12.74071407318115 2.321234703063965 12.60725879669189 2.415230751037598 12.4477367401123 2.480192899703979 C 12.28816890716553 2.545174598693848 12.1025276184082 2.581100702285767 11.89683246612549 2.581068277359009 Z" stroke="none" fill="#48b8b0"/>
    </g>
    <g id="Ellipse_7" data-name="Ellipse 7" transform="translate(37.567 376.436)" fill="none">
      <path d="M2.823,0A3.316,3.316,0,0,1,3.959.211a3.646,3.646,0,0,1,1,.562,3.462,3.462,0,0,1,.762.833,2.886,2.886,0,0,1,.416,1.021,2.3,2.3,0,0,1-.026,1.022,2.045,2.045,0,0,1-.445.836,2.2,2.2,0,0,1-.79.565,2.7,2.7,0,0,1-1.061.208,3.314,3.314,0,0,1-1.14-.206,3.646,3.646,0,0,1-1.006-.564A3.46,3.46,0,0,1,.907,3.65,2.881,2.881,0,0,1,.492,2.625,2.3,2.3,0,0,1,.523,1.6,2.044,2.044,0,0,1,.972.769,2.2,2.2,0,0,1,1.764.208,2.7,2.7,0,0,1,2.823,0Z" stroke="none"/>
      <path d="M 3.650978326797485 4.378963947296143 C 3.910679578781128 4.378808498382568 4.148891925811768 4.329466819763184 4.357230663299561 4.240447998046875 C 4.565503597259521 4.151457786560059 4.74390983581543 4.02282190322876 4.884091854095459 3.864038705825806 C 5.024224281311035 3.705313920974731 5.126156806945801 3.516468524932861 5.181554794311523 3.306984424591064 C 5.236931800842285 3.097575187683105 5.245809078216553 2.867538213729858 5.199858665466309 2.626330375671387 C 5.153922080993652 2.38519811630249 5.057467937469482 2.155353307723999 4.922455787658691 1.946220874786377 C 4.787467956542969 1.73712682723999 4.613918781280518 1.548709869384766 4.413743019104004 1.390395164489746 C 4.213576793670654 1.232088327407837 3.986759662628174 1.103859066963196 3.74521279335022 1.015142202377319 C 3.503644466400146 0.9264174699783325 3.247308731079102 0.8771994113922119 2.988121271133423 0.8769416213035583 C 2.728872537612915 0.87668377161026 2.490907669067383 0.9254328608512878 2.282601833343506 1.013779044151306 C 2.07422924041748 1.102153539657593 1.895521759986877 1.230156302452087 1.754881024360657 1.388370394706726 C 1.614189386367798 1.54664158821106 1.511589169502258 1.735148668289185 1.455503106117249 1.944457054138184 C 1.399396896362305 2.1538405418396 1.38983941078186 2.384035110473633 1.435262441635132 2.625580549240112 C 1.480699777603149 2.867202043533325 1.576910734176636 3.097631692886353 1.71193253993988 3.307368278503418 C 1.846979260444641 3.517143964767456 2.020833253860474 3.706190824508667 2.221508026123047 3.865009069442749 C 2.42219352722168 4.023835182189941 2.649674654006958 4.152406692504883 2.891950368881226 4.241232395172119 C 3.134204626083374 4.330050945281982 3.391216039657593 4.379118919372559 3.650978326797485 4.378963947296143 M 3.817166090011597 5.256969451904297 C 3.426681756973267 5.257359027862549 3.040625095367432 5.1839599609375 2.676902532577515 5.05087947845459 C 2.313130855560303 4.917779922485352 1.9717777967453 4.725011825561523 1.670737981796265 4.486722469329834 C 1.369721651077271 4.248451709747314 1.109074115753174 3.964715957641602 0.9066569209098816 3.649686813354492 C 0.7042961716651917 3.334745168685913 0.5601732134819031 2.988589525222778 0.4920965135097504 2.62539267539978 C 0.4240520894527435 2.262367725372314 0.438433438539505 1.916726469993591 0.5226509571075439 1.60255229473114 C 0.6068229675292969 1.288547158241272 0.7607528567314148 1.005985736846924 0.9718717336654663 0.7688942551612854 C 1.182876229286194 0.5319311022758484 1.451013922691345 0.340381532907486 1.763761162757874 0.2082309275865555 C 2.076358556747437 0.07614373415708542 2.433552265167236 0.003386173397302628 2.822878360748291 0.003927902784198523 C 3.212067365646362 0.004469440318644047 3.596601963043213 0.07820846140384674 3.958780288696289 0.2110798805952072 C 4.320910453796387 0.3439335227012634 4.660767555236816 0.5359322428703308 4.960638523101807 0.7730534076690674 C 5.260532855987549 1.010192513465881 5.520495414733887 1.292509913444519 5.722781658172607 1.606004118919373 C 5.925122737884521 1.919585466384888 6.069793701171875 2.264423131942749 6.13899564743042 2.626517534255981 C 6.208230018615723 2.988782644271851 6.195379257202148 3.334069490432739 6.112800598144531 3.648300886154175 C 6.030177116394043 3.962701797485352 5.877747058868408 4.246024608612061 5.667887210845947 4.484137058258057 C 5.45791482925415 4.722379207611084 5.190456390380859 4.91535472869873 4.87793493270874 5.048890590667725 C 4.565261840820312 5.18248987197876 4.207511901855469 5.256579875946045 3.817166090011597 5.256969451904297 Z" stroke="none" fill="#48b8b0"/>
    </g>
  </g>
</svg>
