<svg xmlns="http://www.w3.org/2000/svg" width="38.176" height="31.094" viewBox="0 0 38.176 31.094">
  <g id="Payments_logo" data-name="Payments logo" transform="translate(-18.121 -418.507)">
    <g id="Path_1" data-name="Path 1" transform="matrix(0.53, -0.848, 0.848, 0.53, 22.288, 433.202)" fill="#fff">
      <path d="M 3.37005090713501 28.77441787719727 C 2.536041021347046 28.77441787719727 1.779690861701965 28.46469688415527 1.240330934524536 27.90231704711914 C 0.733060896396637 27.37338638305664 0.4710609316825867 26.66693687438965 0.5025809407234192 25.91310691833496 L 1.416330933570862 4.062376976013184 C 1.487040877342224 2.371607065200806 2.984620809555054 0.9382070302963257 4.754691123962402 0.8670870065689087 L 13.82275104522705 0.5027370452880859 C 13.86824131011963 0.5009070038795471 13.91360092163086 0.4999970197677612 13.95855045318604 0.4999970197677612 C 14.79256057739258 0.4999970197677612 15.54891109466553 0.809717059135437 16.08827018737793 1.372097015380859 C 16.59554100036621 1.901027083396912 16.85754013061523 2.607476949691772 16.82602119445801 3.361307144165039 L 15.91227054595947 25.2120361328125 C 15.84156131744385 26.90281677246094 14.34398078918457 28.33621788024902 12.5739107131958 28.40732765197754 L 3.505851030349731 28.77167701721191 C 3.460361003875732 28.77350616455078 3.415000915527344 28.77441787719727 3.37005090713501 28.77441787719727 Z" stroke="none"/>
      <path d="M 13.95855140686035 0.9999961853027344 C 13.92026138305664 0.9999961853027344 13.88162040710449 1.000766754150391 13.84283065795898 1.002326965332031 L 4.774761199951172 1.366676330566406 C 4.039131164550781 1.396236419677734 3.334080696105957 1.701137542724609 2.789481163024902 2.22520637512207 C 2.254731178283691 2.739816665649414 1.944480895996094 3.399686813354492 1.915901184082031 4.083267211914062 L 1.002151489257812 25.93399620056152 C 0.9763717651367188 26.55043792724609 1.189121246337891 27.12654685974121 1.601201057434082 27.55622673034668 C 2.069787979125977 28.0448169708252 2.741363525390625 28.30202484130859 3.485771179199219 28.27208709716797 L 12.55383110046387 27.90773773193359 C 13.28947067260742 27.87817764282227 13.99452114105225 27.57327651977539 14.5391206741333 27.04919624328613 C 15.07387065887451 26.53459739685059 15.38412094116211 25.87472724914551 15.41270065307617 25.19114685058594 L 16.32645034790039 3.34040641784668 C 16.35223007202148 2.723976135253906 16.13948059082031 2.147867202758789 15.72740077972412 1.71818733215332 C 15.28323078155518 1.255056381225586 14.6550407409668 0.9999961853027344 13.95855140686035 0.9999961853027344 M 13.95855522155762 -1.9073486328125e-06 C 15.91007709503174 -1.9073486328125e-06 17.40493392944336 1.484712600708008 17.32558059692383 3.382186889648438 L 16.41183090209961 25.2329273223877 C 16.33038139343262 27.18057632446289 14.62107086181641 28.82547760009766 12.59398078918457 28.90692710876465 L 3.525920867919922 29.27127647399902 C 1.498838424682617 29.35271644592285 -0.07843017578125 27.83986854553223 0.003021240234375 25.8922176361084 L 0.9167709350585938 4.041486740112305 C 0.9982204437255859 2.093837738037109 2.707530975341797 0.4489269256591797 4.734621047973633 0.3674869537353516 L 13.80268096923828 0.003137588500976562 C 13.85489273071289 0.001039505004882812 13.90696144104004 -1.9073486328125e-06 13.95855522155762 -1.9073486328125e-06 Z" stroke="none" fill="#48b8b0"/>
    </g>
    <g id="Path_2" data-name="Path 2" transform="matrix(0.53, -0.848, 0.848, 0.53, 18.121, 434.088)" fill="#fff">
      <path d="M 3.37005090713501 28.77441787719727 C 2.536041021347046 28.77441787719727 1.779690861701965 28.46469688415527 1.240330934524536 27.90231704711914 C 0.733060896396637 27.37338638305664 0.4710609316825867 26.66693687438965 0.5025809407234192 25.91310691833496 L 1.416330933570862 4.062376976013184 C 1.487040877342224 2.371607065200806 2.984620809555054 0.9382070302963257 4.754691123962402 0.8670870065689087 L 13.82275104522705 0.5027370452880859 C 13.86824131011963 0.5009070038795471 13.91360092163086 0.4999970197677612 13.95855045318604 0.4999970197677612 C 14.79256057739258 0.4999970197677612 15.54891109466553 0.809717059135437 16.08827018737793 1.372097015380859 C 16.59554100036621 1.901027083396912 16.85754013061523 2.607476949691772 16.82602119445801 3.361307144165039 L 15.91227054595947 25.2120361328125 C 15.84156131744385 26.90281677246094 14.34398078918457 28.33621788024902 12.5739107131958 28.40732765197754 L 3.505851030349731 28.77167701721191 C 3.460361003875732 28.77350616455078 3.415000915527344 28.77441787719727 3.37005090713501 28.77441787719727 Z" stroke="none"/>
      <path d="M 13.95855140686035 0.9999961853027344 C 13.92026138305664 0.9999961853027344 13.88162040710449 1.000766754150391 13.84283065795898 1.002326965332031 L 4.774761199951172 1.366676330566406 C 4.039131164550781 1.396236419677734 3.334080696105957 1.701137542724609 2.789481163024902 2.22520637512207 C 2.254731178283691 2.739816665649414 1.944480895996094 3.399686813354492 1.915901184082031 4.083267211914062 L 1.002151489257812 25.93399620056152 C 0.9763717651367188 26.55043792724609 1.189121246337891 27.12654685974121 1.601201057434082 27.55622673034668 C 2.069787979125977 28.0448169708252 2.741363525390625 28.30202484130859 3.485771179199219 28.27208709716797 L 12.55383110046387 27.90773773193359 C 13.28947067260742 27.87817764282227 13.99452114105225 27.57327651977539 14.5391206741333 27.04919624328613 C 15.07387065887451 26.53459739685059 15.38412094116211 25.87472724914551 15.41270065307617 25.19114685058594 L 16.32645034790039 3.34040641784668 C 16.35223007202148 2.723976135253906 16.13948059082031 2.147867202758789 15.72740077972412 1.71818733215332 C 15.28323078155518 1.255056381225586 14.6550407409668 0.9999961853027344 13.95855140686035 0.9999961853027344 M 13.95855522155762 -1.9073486328125e-06 C 15.91007709503174 -1.9073486328125e-06 17.40493392944336 1.484712600708008 17.32558059692383 3.382186889648438 L 16.41183090209961 25.2329273223877 C 16.33038139343262 27.18057632446289 14.62107086181641 28.82547760009766 12.59398078918457 28.90692710876465 L 3.525920867919922 29.27127647399902 C 1.498838424682617 29.35271644592285 -0.07843017578125 27.83986854553223 0.003021240234375 25.8922176361084 L 0.9167709350585938 4.041486740112305 C 0.9982204437255859 2.093837738037109 2.707530975341797 0.4489269256591797 4.734621047973633 0.3674869537353516 L 13.80268096923828 0.003137588500976562 C 13.85489273071289 0.001039505004882812 13.90696144104004 -1.9073486328125e-06 13.95855522155762 -1.9073486328125e-06 Z" stroke="none" fill="#48b8b0"/>
    </g>
    <text id="_" data-name="₹" transform="matrix(0.839, 0.545, -0.545, 0.839, 29.67, 436.154)" fill="#48b8b0" font-size="13" font-family="SegoeUI-Bold, Segoe UI" font-weight="700"><tspan x="0" y="0">₹</tspan></text>
  </g>
</svg>
